<svg width="244" height="57" viewBox="0 0 244 57" fill="none" xmlns="http://www.w3.org/2000/svg">
<path d="M21.247 55.8042C17.0515 55.8042 13.2986 54.8563 10.0923 52.992C6.87831 51.1235 4.36101 48.4422 2.61739 45.0288C0.881442 41.6309 0 37.6283 0 33.1248C0 28.6214 0.912235 24.4606 2.70975 20.9858C4.51113 17.4955 7.05539 14.7756 10.2732 12.9072C13.4795 11.0426 17.1746 10.0949 21.2508 10.0949C24.8075 10.0949 28.0176 10.7999 30.7888 12.1829C33.564 13.5737 35.8313 15.5577 37.5248 18.0772C39.2146 20.5967 40.2152 23.5669 40.4962 26.8992L40.5464 27.4963H33.7104L33.6372 27.0263C33.1523 23.8058 31.7818 21.2169 29.5647 19.3292C27.3479 17.4454 24.5265 16.49 21.1892 16.49C18.4063 16.49 15.9121 17.1641 13.7759 18.4971C11.6435 19.8262 9.95759 21.7408 8.77592 24.1832C7.58271 26.6449 6.9784 29.5381 6.9784 32.7705C6.9784 36.0026 7.59041 38.9728 8.80288 41.477C10.0076 43.9579 11.7205 45.9149 13.8914 47.2824C16.0661 48.6502 18.5988 49.3475 21.4163 49.3475C24.6035 49.3475 27.3171 48.4652 29.4802 46.7317C31.6395 44.9979 33.0407 42.6443 33.6372 39.724L33.7296 39.2849H40.581L40.4886 39.9166C39.7649 44.7785 37.6942 48.6849 34.3301 51.528C30.9698 54.3671 26.5664 55.808 21.247 55.808" fill="#F0F0F0"/>
<path d="M60.9959 27.6723C58.1205 27.6723 55.8842 28.6586 54.1561 30.685C52.4277 32.7113 51.5541 35.4312 51.5541 38.7712C51.5541 42.1114 52.4277 44.8927 54.1561 46.9153C55.8842 48.9454 58.1205 49.928 60.9959 49.928C63.8711 49.928 66.1073 48.9416 67.8395 46.9153C69.5676 44.8889 70.4415 42.1498 70.4415 38.7712C70.4415 35.3925 69.5676 32.7113 67.8395 30.685C66.1114 28.6546 63.8711 27.6723 60.9959 27.6723ZM60.9959 55.8607C57.8125 55.8607 54.9682 55.1325 52.5433 53.6957C50.1107 52.2547 48.2091 50.2092 46.8967 47.6164C45.5879 45.039 44.9258 42.065 44.9258 38.775C44.9258 35.4851 45.5995 32.457 46.9275 29.8991C48.2631 27.3256 50.176 25.2992 52.6087 23.8816C55.0373 22.4638 57.8587 21.7473 60.9997 21.7473C64.1407 21.7473 66.9659 22.4638 69.3907 23.8816C71.8233 25.303 73.7325 27.3139 75.0681 29.872C76.3961 32.4109 77.0734 35.3887 77.0734 38.7172C77.0734 42.0458 76.3999 45.1008 75.0719 47.6781C73.7363 50.2707 71.8233 52.3087 69.3907 53.7303C66.9618 55.148 64.1407 55.8645 60.9997 55.8645" fill="#F0F0F0"/>
<path d="M157.873 35.3386H175.152C174.756 33.0619 173.843 31.2282 172.442 29.8758C170.91 28.3967 169.024 27.6761 166.68 27.6761C164.336 27.6761 162.381 28.4197 160.791 29.8875C159.321 31.2358 158.343 33.0735 157.873 35.3426M167.092 55.8068C163.913 55.8068 161.087 55.0979 158.701 53.6995C156.307 52.297 154.436 50.2823 153.139 47.705C151.85 45.1471 151.199 42.1653 151.199 38.8367C151.199 35.5081 151.854 32.4532 153.139 29.8799C154.436 27.2833 156.288 25.2569 158.64 23.8545C160.991 22.4561 163.716 21.7473 166.742 21.7473C169.767 21.7473 172.396 22.4368 174.667 23.7968C176.942 25.1605 178.716 27.0983 179.936 29.5562C181.145 31.9948 181.757 34.8032 181.757 37.8929V41.0326H157.719C158.093 43.6639 159.09 45.7864 160.687 47.3544C162.396 49.0264 164.609 49.874 167.269 49.874C169.224 49.874 170.949 49.3732 172.396 48.383C173.843 47.3929 174.74 46.1139 175.144 44.469L175.244 44.0491H181.599L181.515 44.673C181.068 47.9862 179.513 50.6984 176.9 52.744C174.302 54.7741 171.003 55.8028 167.092 55.8028" fill="#F0F0F0"/>
<path d="M207.323 55.3646H201.01C198.212 55.3646 195.91 54.5324 194.163 52.8875C192.411 51.2387 191.522 49.0542 191.522 46.3961V29.588H184.467V23.659H191.522V16.0081H197.916V23.659H207.323V29.588H197.916V46.2766C197.916 47.2706 198.197 48.0258 198.778 48.5882C199.363 49.1582 200.133 49.4318 201.13 49.4318H207.327V55.3608L207.323 55.3646Z" fill="#F0F0F0"/>
<path d="M227.293 27.6723C224.417 27.6723 222.181 28.6586 220.449 30.685C218.721 32.7113 217.847 35.4312 217.847 38.7712C217.847 42.1114 218.721 44.8927 220.449 46.9153C222.177 48.9454 224.417 49.928 227.293 49.928C230.168 49.928 232.404 48.9416 234.136 46.9153C235.861 44.8889 236.738 42.1498 236.738 38.7712C236.738 35.3925 235.864 32.7113 234.136 30.685C232.408 28.6546 230.168 27.6723 227.293 27.6723ZM227.293 55.8607C224.109 55.8607 221.265 55.1325 218.84 53.6957C216.407 52.2547 214.506 50.2092 213.189 47.6164C211.881 45.039 211.219 42.065 211.219 38.775C211.219 35.4851 211.892 32.457 213.224 29.8991C214.56 27.3256 216.469 25.2992 218.901 23.8816C221.33 22.4638 224.152 21.7473 227.293 21.7473C230.433 21.7473 233.259 22.4638 235.684 23.8816C238.115 25.303 240.025 27.3139 241.366 29.872C242.692 32.4109 243.367 35.3887 243.367 38.7172C243.367 42.0458 242.692 45.1008 241.366 47.6781C240.029 50.2707 238.12 52.3087 235.684 53.7303C233.259 55.148 230.433 55.8645 227.293 55.8645" fill="#F0F0F0"/>
<path d="M111.403 55.3686H105.249V34.993C105.249 30.3508 101.473 26.5755 96.8383 26.5755C92.204 26.5755 88.4282 30.3508 88.4282 34.993V55.3686H82.2734V35.1702C82.2734 27.1301 88.8091 20.5887 96.8421 20.5887C104.875 20.5887 111.411 27.1301 111.411 35.1702V55.3686H111.403Z" fill="#F0F0F0"/>
<path d="M146.122 55.3686H139.967V34.993C139.967 30.3508 136.191 26.5755 131.557 26.5755C126.923 26.5755 123.147 30.3508 123.147 34.993V55.3686H116.988V35.1702C116.988 27.1301 123.524 20.5887 131.557 20.5887C139.59 20.5887 146.126 27.1301 146.126 35.1702V55.3686H146.122Z" fill="#F0F0F0"/>
<path d="M68.8438 5.139L69.7963 10.6858C100.214 5.4568 127.344 5.4568 157.765 10.6858L158.717 5.139C143.175 2.47207 128.477 1.13531 113.776 1.13531C99.0744 1.13531 84.3797 2.47207 68.8438 5.139Z" fill="#F0F0F0"/>
</svg>