<svg width="84" height="52" viewBox="0 0 84 52" fill="none" xmlns="http://www.w3.org/2000/svg">
<path d="M12.992 23.4059H24.192V28.5366H12.992V23.4059ZM13.4744 32.9739H26.0874V38.2779H6.71997V14.0112H25.6394V19.3152H13.4744V32.9739ZM29.8738 38.2779V14.0112H40.9015C43.107 14.0112 45.0024 14.3695 46.5877 15.0859C48.1959 15.8023 49.4365 16.8423 50.3095 18.2059C51.1825 19.5463 51.6191 21.141 51.6191 22.9899C51.6191 24.8157 51.1825 26.3988 50.3095 27.7392C49.4365 29.0566 48.1959 30.0735 46.5877 30.7899C45.0024 31.4832 43.107 31.8299 40.9015 31.8299H33.6646L36.6972 28.9526V38.2779H29.8738ZM44.7957 38.2779L38.7994 29.4379H46.0707L52.1015 38.2779H44.7957ZM36.6972 29.6806L33.6646 26.5259H40.488C41.9124 26.5259 42.9692 26.2139 43.6584 25.5899C44.3706 24.9659 44.7267 24.0992 44.7267 22.9899C44.7267 21.8575 44.3706 20.9792 43.6584 20.3552C42.9692 19.7312 41.9124 19.4192 40.488 19.4192H33.6646L36.6972 16.2646V29.6806ZM55.3835 38.2779V14.0112H66.4112C68.6167 14.0112 70.5121 14.3695 72.0971 15.0859C73.7053 15.8023 74.9459 16.8423 75.8189 18.2059C76.692 19.5463 77.1285 21.141 77.1285 22.9899C77.1285 24.8157 76.692 26.3988 75.8189 27.7392C74.9459 29.0797 73.7053 30.1197 72.0971 30.8592C70.5121 31.5757 68.6167 31.9339 66.4112 31.9339H59.1742L62.2069 28.9526V38.2779H55.3835ZM62.2069 29.6806L59.1742 26.5259H65.9976C67.422 26.5259 68.4789 26.2139 69.1681 25.5899C69.8803 24.9659 70.2364 24.0992 70.2364 22.9899C70.2364 21.8575 69.8803 20.9792 69.1681 20.3552C68.4789 19.7312 67.422 19.4192 65.9976 19.4192H59.1742L62.2069 16.2646V29.6806Z" fill="white"/>
</svg>
